<?xml version="1.0" standalone="no"?><!DOCTYPE svg PUBLIC "-//W3C//DTD SVG 1.1//EN" "http://www.w3.org/Graphics/SVG/1.1/DTD/svg11.dtd"><svg width="100%" height="100%" viewBox="0 0 1000 200" version="1.1" xmlns="http://www.w3.org/2000/svg" xmlns:xlink="http://www.w3.org/1999/xlink" xml:space="preserve" style="fill-rule:evenodd;clip-rule:evenodd;stroke-linejoin:round;stroke-miterlimit:1.41421;"><g id="Large"><g><g><g><g><path d="M145.474,157.62c3.039,0 12.033,3.913 14.356,6.072c3.744,3.481 0.022,6.635 0.022,13.198c0,8.052 -2.481,17.16 -7.132,21.109c-1.491,1.266 -3.205,2.001 -5.132,2.001c-2.569,0 -7.824,-2.413 -9.975,-4.016c-4.493,-3.347 -7.126,-10.416 -7.126,-17.608c0,-10.635 7.052,-20.756 14.987,-20.756Z" style="fill:#212121;"/><path d="M151.991,161.462c7.936,0 14.378,8.634 14.378,19.269c0,10.635 -6.442,19.269 -14.378,19.269c-2.047,0 -4.428,0 -4.428,0c0,0 -9.95,-11.377 -9.95,-19.269c0,-10.635 6.442,-19.269 14.378,-19.269Z" style="fill:#212121;"/><ellipse cx="151.991" cy="180.731" rx="12.714" ry="17.038" style="fill:#9e9e9e;"/></g><g><path d="M35.775,117.471c3.039,0 12.033,3.913 14.356,6.073c3.744,3.48 0.022,6.634 0.022,13.197c0,8.052 -2.481,17.161 -7.132,21.109c-1.491,1.266 -3.205,2.001 -5.132,2.001c-2.569,0 -7.824,-2.413 -9.975,-4.016c-4.493,-3.347 -7.126,-10.416 -7.126,-17.608c0,-10.635 7.052,-20.756 14.987,-20.756Z" style="fill:#212121;"/><path d="M42.292,121.313c7.936,0 14.378,8.634 14.378,19.269c0,10.635 -6.442,19.269 -14.378,19.269c-2.047,0 -4.428,0 -4.428,0c0,0 -9.95,-11.377 -9.95,-19.269c0,-10.635 6.442,-19.269 14.378,-19.269Z" style="fill:#212121;"/><ellipse cx="42.292" cy="140.582" rx="12.714" ry="17.038" style="fill:#9e9e9e;"/></g><g><path d="M234.835,124.103c3.039,0 12.034,3.912 14.357,6.072c3.743,3.48 0.022,6.634 0.022,13.197c0,8.053 -2.482,17.161 -7.132,21.109c-1.491,1.266 -3.206,2.001 -5.132,2.001c-2.569,0 -7.825,-2.413 -9.976,-4.015c-4.493,-3.348 -7.125,-10.417 -7.125,-17.609c0,-10.635 7.051,-20.755 14.986,-20.755Z" style="fill:#212121;"/><path d="M241.352,127.944c7.936,0 14.379,8.634 14.379,19.269c0,10.635 -6.443,19.269 -14.379,19.269c-2.046,0 -4.428,0 -4.428,0c0,0 -9.95,-11.377 -9.95,-19.269c0,-10.635 6.443,-19.269 14.378,-19.269Z" style="fill:#212121;"/><ellipse cx="241.352" cy="147.213" rx="12.714" ry="17.038" style="fill:#9e9e9e;"/></g><path d="M254.28,118.094l12.49,10.481l10.719,-6.44l-12.491,-10.481l-10.718,6.44Z" style="fill:#424242;"/><g><g><path d="M39.941,88.208c-1.491,-0.08 -3.089,-0.421 -4.635,-0.99c-4.861,-1.786 -8.035,-5.338 -7.084,-7.926c0.951,-2.589 5.67,-3.24 10.531,-1.453c1.546,0.568 2.985,1.343 4.173,2.246l-2.985,8.123Z" style="fill:#d32f2f;"/><g><path d="M240.741,53.968l-166.188,60.487l29.038,79.783l166.188,-60.488c0.069,-36.91 -9.318,-63.814 -29.038,-79.782Z" style="fill:#e53935;"/><path d="M244.913,67.674l-30.988,10.67l0,34.525l44.913,-16.432c-1.091,-11.435 -5.287,-21.254 -13.925,-28.763Z" style="fill:#bbdefb;"/><path d="M209.976,79.785l-37.81,14.243l-23.468,43.174l61.278,-22.694l0,-34.723Z" style="fill:#bbdefb;"/><path d="M135.47,138.332l-95.692,-55.247c-20.783,11.834 -30.781,31.002 -32.277,55.905l95.692,55.248c-0.612,-25.44 10.803,-42.214 32.277,-55.906Z" style="fill:#f44336;"/><path d="M166.931,84.169l-96.741,-55.854l-31.461,54.493l96.741,55.853l31.461,-54.492Z" style="fill:#ef5350;"/><path d="M160.07,89.257l-90.855,-52.455l-23.624,40.918l90.855,52.455l23.624,-40.918Z" style="fill:#bbdefb;"/><path d="M146.945,0l-78.101,28.427l98.087,56.631l78.102,-28.427l-98.088,-56.631Z" style="fill:#d32f2f;"/></g><path d="M139.408,141.477c1.243,0.826 2.729,1.507 4.308,1.975c4.966,1.471 9.633,0.52 10.417,-2.124c0.783,-2.644 -2.612,-5.986 -7.577,-7.457c-1.579,-0.468 -3.197,-0.707 -4.689,-0.692l-2.459,8.298Z" style="fill:#d32f2f;"/></g><path d="M27.914,138.122l-13.697,-7.908l-1.668,11.868l13.697,7.907l1.668,-11.867Z" style="fill:#ffeb3b;"/><path d="M99.04,179.283l-13.696,-7.908l-1.668,11.867l13.697,7.908l1.667,-11.867Z" style="fill:#ffeb3b;"/><path d="M277.336,121.925l-15.217,5.539l0,11.83l15.217,-5.539l0,-11.83Z" style="fill:#424242;"/><path d="M273.589,118.781l-15.217,5.539l3.747,3.144l15.217,-5.539l-3.747,-3.144Z" style="fill:#424242;"/><path d="M262.49,127.464l-4.118,-3.456l0,11.83l4.118,3.456l0,-11.83Z" style="fill:#424242;"/></g></g><path d="M71.524,151.777c0.473,-0.453 1.872,-2.151 1.872,-2.151c0,0 -0.104,1.087 -1.21,2.513c-1.106,1.426 -1.065,1.442 -1.065,1.442l-0.664,-0.782c0,0 0.593,-0.569 1.067,-1.022M73.548,152.957c1.048,-0.97 2.28,-2.445 2.28,-2.445c0,0 -0.222,1.205 -1.658,2.87c-1.437,1.665 -1.754,2.094 -1.754,2.094l-0.714,-1.146c0,0 0.799,-0.403 1.846,-1.373M75.664,155.12c-1.52,1.704 -2.174,2.361 -2.174,2.361l-0.785,-1.438c0,0 1.25,-0.761 2.441,-1.795c1.192,-1.034 2.854,-3.038 2.854,-3.038c0,0 -0.815,2.207 -2.336,3.91M74.84,145.568c-1.422,-1.127 -1.858,-2.827 -1.45,-3.821c1.188,-2.896 7.514,5.969 7.514,5.969c0,0 3.588,-2.724 3.667,-7.064c0.079,-4.341 -3.119,-7.932 -3.119,-7.932c0,0 -0.515,-0.77 0.629,-0.915c1.144,-0.145 2.543,3.649 2.543,3.649l3.541,-0.346c0,0 -0.991,-4.968 -6.25,-8.099c-5.258,-3.13 -12.76,-3.579 -12.76,-3.579c0,0 6.272,-1.986 13.53,2.459c7.259,4.445 7.6,11.964 7.6,11.964l10.51,-0.869c0,0 1.056,-10.133 -14.553,-18.018c-7.187,-3.63 -19.793,-4.789 -26.444,-0.279c-7.795,5.285 -9.292,17.017 -9.292,17.017c0,0 3.151,-6.189 5.692,-6.242c2.54,-0.054 3.385,1.922 3.385,1.922c0,0 -4.728,3.924 -4.052,6.146c0.676,2.221 -1.398,4.552 -3.539,5.918c-2.14,1.367 -9.831,0.901 -9.831,0.901c0,0 0.152,1.86 4.158,3.441c9.268,4.27 18.523,-1.071 19.735,-0.414c1.213,0.656 -1.863,1.264 -1.867,2.694c5.856,3.685 9.253,11.502 9.253,11.502c0,0 3.74,-3.102 5.972,-6.104c2.231,-3.002 3.11,-6.319 3.11,-6.319c0,0 -4.962,-1.427 -7.682,-3.581" style="fill:#ffe5ea;fill-rule:nonzero;"/></g></g></g></svg>